<svg width="28" height="17" viewBox="0 0 28 17" fill="none" xmlns="http://www.w3.org/2000/svg">
    <path
        d="M1 6.67334C1 3.63577 3.46243 1.17334 6.5 1.17334H21.5C24.5376 1.17334 27 3.63577 27 6.67334V10.6733C27 13.7109 24.5376 16.1733 21.5 16.1733H6.5C3.46243 16.1733 1 13.7109 1 10.6733V6.67334Z"
        stroke="#fff" />
    <path
        d="M7.7983 12.8694C7.46023 12.8694 7.15057 12.787 6.86932 12.6222C6.58807 12.4546 6.36364 12.2302 6.19602 11.9489C6.03125 11.6677 5.94886 11.358 5.94886 11.0199C5.94886 10.679 6.03125 10.3679 6.19602 10.0867C6.36364 9.80544 6.58807 9.58101 6.86932 9.4134C7.15057 9.24578 7.46023 9.16198 7.7983 9.16198H8.78693V7.44891H7.7983C7.46023 7.44891 7.15057 7.36652 6.86932 7.20175C6.58807 7.03414 6.36364 6.81112 6.19602 6.53271C6.03125 6.25146 5.94886 5.94039 5.94886 5.59948C5.94886 5.25857 6.03125 4.94891 6.19602 4.6705C6.36364 4.38925 6.58807 4.16624 6.86932 4.00146C7.15057 3.83385 7.46023 3.75004 7.7983 3.75004C8.1392 3.75004 8.45028 3.83385 8.73153 4.00146C9.01278 4.16624 9.23722 4.38925 9.40483 4.6705C9.57244 4.94891 9.65625 5.25857 9.65625 5.59948V6.57959H11.3693V5.59948C11.3693 5.25857 11.4517 4.94891 11.6165 4.6705C11.7841 4.38925 12.0071 4.16624 12.2855 4.00146C12.5668 3.83385 12.8778 3.75004 13.2188 3.75004C13.5597 3.75004 13.8693 3.83385 14.1477 4.00146C14.429 4.16624 14.652 4.38925 14.8168 4.6705C14.9844 4.94891 15.0682 5.25857 15.0682 5.59948C15.0682 5.94039 14.9844 6.25146 14.8168 6.53271C14.652 6.81112 14.429 7.03414 14.1477 7.20175C13.8693 7.36652 13.5597 7.44891 13.2188 7.44891H12.2386V9.16198H13.2188C13.5597 9.16198 13.8693 9.24578 14.1477 9.4134C14.429 9.58101 14.652 9.80544 14.8168 10.0867C14.9844 10.3679 15.0682 10.679 15.0682 11.0199C15.0682 11.358 14.9844 11.6677 14.8168 11.9489C14.652 12.2302 14.429 12.4546 14.1477 12.6222C13.8693 12.787 13.5597 12.8694 13.2188 12.8694C12.8778 12.8694 12.5668 12.787 12.2855 12.6222C12.0071 12.4546 11.7841 12.2302 11.6165 11.9489C11.4517 11.6677 11.3693 11.358 11.3693 11.0199V10.0313H9.65625V11.0199C9.65625 11.358 9.57244 11.6677 9.40483 11.9489C9.23722 12.2302 9.01278 12.4546 8.73153 12.6222C8.45028 12.787 8.1392 12.8694 7.7983 12.8694ZM7.7983 12C7.98011 12 8.14489 11.956 8.29261 11.8679C8.44318 11.7799 8.5625 11.662 8.65057 11.5142C8.74148 11.3637 8.78693 11.1989 8.78693 11.0199V10.0313H7.7983C7.61932 10.0313 7.45455 10.0767 7.30398 10.1677C7.15625 10.2557 7.03835 10.375 6.95028 10.5256C6.86222 10.6733 6.81818 10.8381 6.81818 11.0199C6.81818 11.1989 6.86222 11.3637 6.95028 11.5142C7.03835 11.662 7.15625 11.7799 7.30398 11.8679C7.45455 11.956 7.61932 12 7.7983 12ZM7.7983 6.57959H8.78693V5.59948C8.78693 5.41766 8.74148 5.25289 8.65057 5.10516C8.5625 4.95743 8.44318 4.83953 8.29261 4.75146C8.14489 4.6634 7.98011 4.61936 7.7983 4.61936C7.61932 4.61936 7.45455 4.6634 7.30398 4.75146C7.15625 4.83953 7.03835 4.95743 6.95028 5.10516C6.86222 5.25289 6.81818 5.41766 6.81818 5.59948C6.81818 5.78129 6.86222 5.94749 6.95028 6.09806C7.03835 6.24578 7.15625 6.36368 7.30398 6.45175C7.45455 6.53698 7.61932 6.57959 7.7983 6.57959ZM12.2386 6.57959H13.2188C13.4006 6.57959 13.5653 6.53698 13.7131 6.45175C13.8608 6.36368 13.9787 6.24578 14.0668 6.09806C14.1548 5.94749 14.1989 5.78129 14.1989 5.59948C14.1989 5.41766 14.1548 5.25289 14.0668 5.10516C13.9787 4.95743 13.8608 4.83953 13.7131 4.75146C13.5653 4.6634 13.4006 4.61936 13.2188 4.61936C13.0369 4.61936 12.8707 4.6634 12.7202 4.75146C12.5724 4.83953 12.4545 4.95743 12.3665 5.10516C12.2813 5.25289 12.2386 5.41766 12.2386 5.59948V6.57959ZM13.2188 12C13.4006 12 13.5653 11.956 13.7131 11.8679C13.8608 11.7799 13.9787 11.662 14.0668 11.5142C14.1548 11.3637 14.1989 11.1989 14.1989 11.0199C14.1989 10.8381 14.1548 10.6733 14.0668 10.5256C13.9787 10.375 13.8608 10.2557 13.7131 10.1677C13.5653 10.0767 13.4006 10.0313 13.2188 10.0313H12.2386V11.0199C12.2386 11.1989 12.2813 11.3637 12.3665 11.5142C12.4545 11.662 12.5724 11.7799 12.7202 11.8679C12.8707 11.956 13.0369 12 13.2188 12ZM9.65625 9.16198H11.3693V7.44891H9.65625V9.16198ZM20.9094 3.94607H21.9663V10.1847C21.9663 10.7415 21.864 11.2145 21.6594 11.6037C21.4549 11.9929 21.1665 12.2884 20.7944 12.4901C20.4222 12.6918 19.9833 12.7927 19.4776 12.7927C19.0004 12.7927 18.5756 12.706 18.2035 12.5327C17.8313 12.3566 17.5387 12.1066 17.3256 11.7827C17.1126 11.4589 17.006 11.0739 17.006 10.6279H18.0458C18.0458 10.875 18.1069 11.091 18.229 11.2756C18.354 11.4574 18.5245 11.5995 18.7404 11.7017C18.9563 11.804 19.2021 11.8552 19.4776 11.8552C19.7816 11.8552 20.0401 11.7912 20.2532 11.6634C20.4663 11.5356 20.6282 11.3481 20.739 11.1009C20.8526 10.8509 20.9094 10.5455 20.9094 10.1847V3.94607Z"
        fill="#fff" />
</svg>