<svg width="114" height="24" viewBox="0 0 114 24" fill="none" xmlns="http://www.w3.org/2000/svg">
<path d="M20.2827 3H5.28271C4.88489 3 4.50336 3.15804 4.22205 3.43934C3.94075 3.72064 3.78271 4.10218 3.78271 4.5V19.5C3.78271 19.8978 3.94075 20.2794 4.22205 20.5607C4.50336 20.842 4.88489 21 5.28271 21H20.2827C20.6805 21 21.0621 20.842 21.3434 20.5607C21.6247 20.2794 21.7827 19.8978 21.7827 19.5V4.5C21.7827 4.10218 21.6247 3.72064 21.3434 3.43934C21.0621 3.15804 20.6805 3 20.2827 3ZM6.78271 6.75H18.7827C18.9816 6.75 19.1724 6.82902 19.313 6.96967C19.4537 7.11032 19.5327 7.30109 19.5327 7.5C19.5327 7.69891 19.4537 7.88968 19.313 8.03033C19.1724 8.17098 18.9816 8.25 18.7827 8.25H6.78271C6.5838 8.25 6.39304 8.17098 6.25238 8.03033C6.11173 7.88968 6.03271 7.69891 6.03271 7.5C6.03271 7.30109 6.11173 7.11032 6.25238 6.96967C6.39304 6.82902 6.5838 6.75 6.78271 6.75ZM10.5327 17.25H6.78271C6.5838 17.25 6.39304 17.171 6.25238 17.0303C6.11173 16.8897 6.03271 16.6989 6.03271 16.5C6.03271 16.3011 6.11173 16.1103 6.25238 15.9697C6.39304 15.829 6.5838 15.75 6.78271 15.75H10.5327C10.7316 15.75 10.9224 15.829 11.063 15.9697C11.2037 16.1103 11.2827 16.3011 11.2827 16.5C11.2827 16.6989 11.2037 16.8897 11.063 17.0303C10.9224 17.171 10.7316 17.25 10.5327 17.25ZM10.5327 12.75H6.78271C6.5838 12.75 6.39304 12.671 6.25238 12.5303C6.11173 12.3897 6.03271 12.1989 6.03271 12C6.03271 11.8011 6.11173 11.6103 6.25238 11.4697C6.39304 11.329 6.5838 11.25 6.78271 11.25H10.5327C10.7316 11.25 10.9224 11.329 11.063 11.4697C11.2037 11.6103 11.2827 11.8011 11.2827 12C11.2827 12.1989 11.2037 12.3897 11.063 12.5303C10.9224 12.671 10.7316 12.75 10.5327 12.75ZM19.199 14.8744L14.699 17.8744C14.5757 17.9564 14.4308 18.0001 14.2827 18C14.0838 18 13.893 17.921 13.7524 17.7803C13.6117 17.6397 13.5327 17.4489 13.5327 17.25V11.25C13.5326 11.1142 13.5694 10.9809 13.6392 10.8644C13.7089 10.7478 13.809 10.6524 13.9287 10.5883C14.0485 10.5242 14.1834 10.4938 14.319 10.5004C14.4547 10.507 14.586 10.5502 14.699 10.6256L19.199 13.6256C19.3018 13.6941 19.3862 13.7869 19.4446 13.8958C19.5029 14.0048 19.5334 14.1264 19.5334 14.25C19.5334 14.3736 19.5029 14.4952 19.4446 14.6042C19.3862 14.7131 19.3018 14.8059 19.199 14.8744Z" fill="#6366F1"/>
<path d="M37.4947 14.76C37.4947 15.736 37.3747 16.62 37.1347 17.412C36.8947 18.196 36.5307 18.872 36.0427 19.44C35.5627 20 34.9587 20.432 34.2307 20.736C33.5027 21.04 32.6547 21.192 31.6867 21.192C31.2467 21.192 30.8107 21.164 30.3787 21.108C29.9547 21.06 29.5067 20.98 29.0347 20.868C29.0667 20.516 29.0987 20.164 29.1307 19.812C29.1627 19.46 29.1947 19.108 29.2267 18.756C29.2507 18.564 29.3267 18.412 29.4547 18.3C29.5827 18.18 29.7667 18.12 30.0067 18.12C30.1427 18.12 30.3147 18.144 30.5227 18.192C30.7387 18.24 31.0027 18.264 31.3147 18.264C31.7467 18.264 32.1227 18.204 32.4427 18.084C32.7627 17.964 33.0307 17.768 33.2467 17.496C33.4627 17.224 33.6227 16.872 33.7267 16.44C33.8387 16 33.8947 15.468 33.8947 14.844V3.588H37.4947V14.76ZM45.7151 8.436C46.6431 8.436 47.4871 8.584 48.2471 8.88C49.0071 9.176 49.6591 9.6 50.2031 10.152C50.7471 10.696 51.1671 11.36 51.4631 12.144C51.7591 12.928 51.9071 13.812 51.9071 14.796C51.9071 15.78 51.7591 16.668 51.4631 17.46C51.1671 18.244 50.7471 18.912 50.2031 19.464C49.6591 20.016 49.0071 20.44 48.2471 20.736C47.4871 21.032 46.6431 21.18 45.7151 21.18C44.7791 21.18 43.9271 21.032 43.1591 20.736C42.3991 20.44 41.7471 20.016 41.2031 19.464C40.6591 18.912 40.2351 18.244 39.9311 17.46C39.6351 16.668 39.4871 15.78 39.4871 14.796C39.4871 13.812 39.6351 12.928 39.9311 12.144C40.2351 11.36 40.6591 10.696 41.2031 10.152C41.7471 9.6 42.3991 9.176 43.1591 8.88C43.9271 8.584 44.7791 8.436 45.7151 8.436ZM45.7151 18.696C46.6591 18.696 47.3591 18.372 47.8151 17.724C48.2711 17.068 48.4991 16.096 48.4991 14.808C48.4991 13.528 48.2711 12.564 47.8151 11.916C47.3591 11.26 46.6591 10.932 45.7151 10.932C44.7471 10.932 44.0351 11.26 43.5791 11.916C43.1231 12.564 42.8951 13.528 42.8951 14.808C42.8951 16.096 43.1231 17.068 43.5791 17.724C44.0351 18.372 44.7471 18.696 45.7151 18.696ZM58.0243 21.192C57.4643 21.192 56.9683 21.112 56.5363 20.952C56.1043 20.784 55.7403 20.548 55.4443 20.244C55.1483 19.94 54.9243 19.572 54.7723 19.14C54.6203 18.708 54.5443 18.22 54.5443 17.676V11.004H53.3803C53.2043 11.004 53.0523 10.948 52.9243 10.836C52.8043 10.724 52.7443 10.556 52.7443 10.332V9.036L54.7243 8.676L55.3963 5.472C55.4843 5.112 55.7283 4.932 56.1283 4.932H57.8563V8.7H61.0483V11.004H57.8563V17.46C57.8563 17.804 57.9363 18.076 58.0963 18.276C58.2643 18.476 58.5003 18.576 58.8043 18.576C58.9643 18.576 59.1003 18.56 59.2123 18.528C59.3243 18.488 59.4203 18.448 59.5003 18.408C59.5803 18.36 59.6523 18.32 59.7163 18.288C59.7883 18.248 59.8603 18.228 59.9323 18.228C60.0283 18.228 60.1083 18.252 60.1723 18.3C60.2363 18.34 60.3003 18.412 60.3643 18.516L61.3603 20.1C60.9043 20.46 60.3883 20.732 59.8123 20.916C59.2363 21.1 58.6403 21.192 58.0243 21.192ZM70.8813 10.608C71.1453 10.312 71.4253 10.044 71.7213 9.804C72.0173 9.564 72.3293 9.36 72.6573 9.192C72.9933 9.016 73.3453 8.884 73.7133 8.796C74.0893 8.7 74.4933 8.652 74.9253 8.652C75.5893 8.652 76.1733 8.764 76.6773 8.988C77.1893 9.204 77.6133 9.516 77.9493 9.924C78.2933 10.324 78.5533 10.808 78.7293 11.376C78.9053 11.944 78.9933 12.572 78.9933 13.26V21H76.8453V13.26C76.8453 12.34 76.6333 11.628 76.2093 11.124C75.7933 10.612 75.1573 10.356 74.3013 10.356C73.6693 10.356 73.0773 10.508 72.5253 10.812C71.9813 11.116 71.4773 11.528 71.0133 12.048V21H68.8653V8.844H70.1493C70.4533 8.844 70.6413 8.992 70.7133 9.288L70.8813 10.608ZM87.3722 8.652C88.2602 8.652 89.0602 8.8 89.7722 9.096C90.4842 9.392 91.0922 9.812 91.5962 10.356C92.1002 10.9 92.4842 11.56 92.7482 12.336C93.0202 13.104 93.1562 13.964 93.1562 14.916C93.1562 15.876 93.0202 16.74 92.7482 17.508C92.4842 18.276 92.1002 18.932 91.5962 19.476C91.0922 20.02 90.4842 20.44 89.7722 20.736C89.0602 21.024 88.2602 21.168 87.3722 21.168C86.4762 21.168 85.6682 21.024 84.9482 20.736C84.2362 20.44 83.6282 20.02 83.1242 19.476C82.6202 18.932 82.2322 18.276 81.9602 17.508C81.6962 16.74 81.5642 15.876 81.5642 14.916C81.5642 13.964 81.6962 13.104 81.9602 12.336C82.2322 11.56 82.6202 10.9 83.1242 10.356C83.6282 9.812 84.2362 9.392 84.9482 9.096C85.6682 8.8 86.4762 8.652 87.3722 8.652ZM87.3722 19.5C88.5722 19.5 89.4682 19.1 90.0602 18.3C90.6522 17.492 90.9482 16.368 90.9482 14.928C90.9482 13.48 90.6522 12.352 90.0602 11.544C89.4682 10.736 88.5722 10.332 87.3722 10.332C86.7642 10.332 86.2322 10.436 85.7762 10.644C85.3282 10.852 84.9522 11.152 84.6482 11.544C84.3522 11.936 84.1282 12.42 83.9762 12.996C83.8322 13.564 83.7602 14.208 83.7602 14.928C83.7602 16.368 84.0562 17.492 84.6482 18.3C85.2482 19.1 86.1562 19.5 87.3722 19.5ZM112.442 8.844L108.506 21H106.814C106.606 21 106.462 20.864 106.382 20.592L103.694 12.348C103.63 12.164 103.578 11.98 103.538 11.796C103.498 11.604 103.458 11.416 103.418 11.232C103.378 11.416 103.338 11.604 103.298 11.796C103.258 11.98 103.206 12.168 103.142 12.36L100.406 20.592C100.334 20.864 100.174 21 99.9258 21H98.3178L94.3818 8.844H96.0618C96.2298 8.844 96.3698 8.888 96.4818 8.976C96.6018 9.064 96.6818 9.168 96.7218 9.288L99.0498 17.112C99.1858 17.688 99.2938 18.232 99.3738 18.744C99.4458 18.48 99.5178 18.212 99.5898 17.94C99.6698 17.668 99.7538 17.392 99.8418 17.112L102.41 9.24C102.45 9.12 102.518 9.02 102.614 8.94C102.718 8.86 102.842 8.82 102.986 8.82H103.922C104.082 8.82 104.214 8.86 104.318 8.94C104.422 9.02 104.494 9.12 104.534 9.24L107.042 17.112C107.13 17.392 107.21 17.668 107.282 17.94C107.354 18.212 107.422 18.48 107.486 18.744C107.526 18.48 107.574 18.216 107.63 17.952C107.694 17.68 107.762 17.4 107.834 17.112L110.21 9.288C110.25 9.16 110.326 9.056 110.438 8.976C110.55 8.888 110.682 8.844 110.834 8.844H112.442Z" fill="#0F172A"/>
<path d="M62.3546 19.26C62.3546 18.996 62.4026 18.748 62.4986 18.516C62.6026 18.276 62.7426 18.072 62.9186 17.904C63.0946 17.728 63.2986 17.592 63.5306 17.496C63.7706 17.392 64.0306 17.34 64.3106 17.34C64.5826 17.34 64.8386 17.392 65.0786 17.496C65.3186 17.592 65.5266 17.728 65.7026 17.904C65.8786 18.072 66.0146 18.276 66.1106 18.516C66.2146 18.748 66.2666 18.996 66.2666 19.26C66.2666 19.532 66.2146 19.784 66.1106 20.016C66.0146 20.248 65.8786 20.452 65.7026 20.628C65.5266 20.796 65.3186 20.928 65.0786 21.024C64.8386 21.12 64.5826 21.168 64.3106 21.168C64.0306 21.168 63.7706 21.12 63.5306 21.024C63.2986 20.928 63.0946 20.796 62.9186 20.628C62.7426 20.452 62.6026 20.248 62.4986 20.016C62.4026 19.784 62.3546 19.532 62.3546 19.26Z" fill="#6366F1"/>
</svg>
